<mxfile host="app.diagrams.net" modified="2022-12-14T07:41:24.929Z" agent="5.0 (Windows NT 10.0; Win64; x64) AppleWebKit/537.36 (KHTML, like Gecko) Chrome/108.0.0.0 Safari/537.36" version="20.6.2" etag="bPAmZq9Kqjjjqu8utUEx" type="github">
  <diagram id="Zs5yMemFec8XR6SQiV4N" name="Page-1">
    <mxGraphModel dx="1564" dy="936" grid="1" gridSize="10" guides="1" tooltips="1" connect="1" arrows="1" fold="1" page="1" pageScale="1" pageWidth="850" pageHeight="1100" math="0" shadow="0">
      <root>
        <mxCell id="0" />
        <mxCell id="1" parent="0" />
        <mxCell id="nG4mqLeNwJ-k9fJy5DQI-7" value="" style="sketch=0;pointerEvents=1;shadow=0;dashed=0;html=1;strokeColor=none;fillColor=#505050;labelPosition=center;verticalLabelPosition=bottom;verticalAlign=top;outlineConnect=0;align=center;shape=mxgraph.office.users.call_center_agent;" vertex="1" parent="1">
          <mxGeometry x="81" y="503" width="46" height="55" as="geometry" />
        </mxCell>
        <mxCell id="nG4mqLeNwJ-k9fJy5DQI-8" value="CSA MC Custom APP" style="swimlane;whiteSpace=wrap;html=1;" vertex="1" parent="1">
          <mxGeometry x="204" y="358" width="228" height="343" as="geometry" />
        </mxCell>
        <mxCell id="nG4mqLeNwJ-k9fJy5DQI-14" value="CT" style="swimlane;whiteSpace=wrap;html=1;" vertex="1" parent="1">
          <mxGeometry x="639" y="359" width="225" height="340" as="geometry" />
        </mxCell>
        <mxCell id="nG4mqLeNwJ-k9fJy5DQI-19" value="" style="swimlane;startSize=0;" vertex="1" parent="1">
          <mxGeometry x="257" y="460" width="145" height="23" as="geometry">
            <mxRectangle x="340" y="444" width="122" height="40" as="alternateBounds" />
          </mxGeometry>
        </mxCell>
        <mxCell id="nG4mqLeNwJ-k9fJy5DQI-20" value="" style="swimlane;startSize=0;" vertex="1" parent="1">
          <mxGeometry x="257" y="434" width="145" height="26" as="geometry">
            <mxRectangle x="340" y="444" width="122" height="40" as="alternateBounds" />
          </mxGeometry>
        </mxCell>
        <mxCell id="nG4mqLeNwJ-k9fJy5DQI-24" value="" style="swimlane;startSize=0;" vertex="1" parent="1">
          <mxGeometry x="257" y="483" width="145" height="23" as="geometry">
            <mxRectangle x="340" y="444" width="122" height="40" as="alternateBounds" />
          </mxGeometry>
        </mxCell>
        <mxCell id="nG4mqLeNwJ-k9fJy5DQI-25" value="" style="swimlane;startSize=0;" vertex="1" parent="1">
          <mxGeometry x="258" y="547" width="145" height="23" as="geometry">
            <mxRectangle x="340" y="444" width="122" height="40" as="alternateBounds" />
          </mxGeometry>
        </mxCell>
        <mxCell id="nG4mqLeNwJ-k9fJy5DQI-27" value="" style="swimlane;startSize=0;" vertex="1" parent="1">
          <mxGeometry x="257" y="507" width="146" height="23" as="geometry">
            <mxRectangle x="340" y="444" width="122" height="40" as="alternateBounds" />
          </mxGeometry>
        </mxCell>
        <mxCell id="nG4mqLeNwJ-k9fJy5DQI-28" value="" style="swimlane;startSize=0;" vertex="1" parent="1">
          <mxGeometry x="258" y="581" width="145" height="23" as="geometry">
            <mxRectangle x="340" y="444" width="122" height="40" as="alternateBounds" />
          </mxGeometry>
        </mxCell>
        <mxCell id="nG4mqLeNwJ-k9fJy5DQI-29" value="Customer Summary" style="text;html=1;align=center;verticalAlign=middle;resizable=0;points=[];autosize=1;strokeColor=none;fillColor=none;" vertex="1" parent="1">
          <mxGeometry x="266" y="434" width="130" height="30" as="geometry" />
        </mxCell>
        <mxCell id="nG4mqLeNwJ-k9fJy5DQI-30" value="&lt;blockquote style=&quot;margin: 0 0 0 40px; border: none; padding: 0px;&quot;&gt;Customer Profile&lt;/blockquote&gt;" style="text;html=1;align=center;verticalAlign=middle;resizable=0;points=[];autosize=1;strokeColor=none;fillColor=none;" vertex="1" parent="1">
          <mxGeometry x="229" y="458" width="150" height="30" as="geometry" />
        </mxCell>
        <mxCell id="nG4mqLeNwJ-k9fJy5DQI-31" value="Customer Addresses" style="text;html=1;align=center;verticalAlign=middle;resizable=0;points=[];autosize=1;strokeColor=none;fillColor=none;" vertex="1" parent="1">
          <mxGeometry x="270" y="481" width="130" height="30" as="geometry" />
        </mxCell>
        <mxCell id="nG4mqLeNwJ-k9fJy5DQI-33" value="Customer Password" style="text;html=1;align=center;verticalAlign=middle;resizable=0;points=[];autosize=1;strokeColor=none;fillColor=none;" vertex="1" parent="1">
          <mxGeometry x="268" y="505" width="130" height="30" as="geometry" />
        </mxCell>
        <mxCell id="nG4mqLeNwJ-k9fJy5DQI-35" value="Customer 360" style="swimlane;horizontal=0;whiteSpace=wrap;html=1;" vertex="1" parent="1">
          <mxGeometry x="219" y="419" width="198" height="237" as="geometry" />
        </mxCell>
        <mxCell id="nG4mqLeNwJ-k9fJy5DQI-36" value="Customer Orders" style="text;html=1;align=center;verticalAlign=middle;resizable=0;points=[];autosize=1;strokeColor=none;fillColor=none;" vertex="1" parent="1">
          <mxGeometry x="264" y="545" width="120" height="30" as="geometry" />
        </mxCell>
        <mxCell id="nG4mqLeNwJ-k9fJy5DQI-37" value="Customer Tickets" style="text;html=1;align=center;verticalAlign=middle;resizable=0;points=[];autosize=1;strokeColor=none;fillColor=none;" vertex="1" parent="1">
          <mxGeometry x="263" y="577" width="120" height="30" as="geometry" />
        </mxCell>
        <mxCell id="nG4mqLeNwJ-k9fJy5DQI-39" value="Rest" style="sketch=0;html=1;dashed=0;whitespace=wrap;fillColor=#2875E2;strokeColor=#ffffff;points=[[0.005,0.63,0],[0.1,0.2,0],[0.9,0.2,0],[0.5,0,0],[0.995,0.63,0],[0.72,0.99,0],[0.5,1,0],[0.28,0.99,0]];verticalLabelPosition=bottom;align=center;verticalAlign=top;shape=mxgraph.kubernetes.icon;prIcon=api" vertex="1" parent="1">
          <mxGeometry x="518" y="460" width="50" height="48" as="geometry" />
        </mxCell>
        <mxCell id="nG4mqLeNwJ-k9fJy5DQI-45" value="" style="shape=mxgraph.gcp2.doubleRect;strokeColor=#dddddd;shadow=1;strokeWidth=1;rounded=1;absoluteArcSize=1;arcSize=2;" vertex="1" parent="1">
          <mxGeometry x="664" y="403" width="178" height="65" as="geometry" />
        </mxCell>
        <mxCell id="nG4mqLeNwJ-k9fJy5DQI-46" value="&lt;font color=&quot;#000000&quot;&gt;Customer&lt;/font&gt;&lt;br&gt;CT Graphql Endpoint" style="editableCssRules=.*;html=1;fontColor=#999999;shape=image;verticalLabelPosition=middle;labelBackgroundColor=#ffffff;verticalAlign=middle;labelPosition=right;align=left;spacingLeft=20;part=1;points=[];imageAspect=0;image=data:image/svg+xml,PHN2ZyB4bWxucz0iaHR0cDovL3d3dy53My5vcmcvMjAwMC9zdmciIHhtbG5zOnY9Imh0dHBzOi8vdmVjdGEuaW8vbmFubyIgd2lkdGg9IjE5Ljk1MDAwMDc2MjkzOTQ1MyIgaGVpZ2h0PSIxMiIgdmlld0JveD0iMCAwIDE5Ljk1MDAwMDc2MjkzOTQ1MyAxMiI+JiN4YTsJPHN0eWxlIHR5cGU9InRleHQvY3NzIj4mI3hhOwkuc3Qwe2ZpbGw6IzQyODVmNH0mI3hhOwkuc3Qxe2ZpbGw6I2FlY2JmYX0mI3hhOwk8L3N0eWxlPiYjeGE7CTxwYXRoIGNsYXNzPSJzdDAiIGQ9Ik02IDZsMSAyaDZsMS0yLTEtMkg3eiIgZmlsbD0iIzQyODVmNCIvPiYjeGE7CTxwYXRoIGNsYXNzPSJzdDEiIGQ9Ik03LjUxIDRIN0w2IDZoOGwtMS0yeiIgZmlsbD0iI2FlY2JmYSIvPiYjeGE7CTxwYXRoIGNsYXNzPSJzdDAiIGQ9Ik0xNi45NyA2bDEuNS0yLjI1TDE2IDBoLTN6IiBmaWxsPSIjNDI4NWY0Ii8+JiN4YTsJPHBhdGggY2xhc3M9InN0MSIgZD0iTTE2Ljk3IDZoMEwxMyAxMmgzbDMuOTUtNi0xLjQ4LTIuMjV6IiBmaWxsPSIjYWVjYmZhIi8+JiN4YTsJPHBhdGggY2xhc3M9InN0MCIgZD0iTTIuOTggNmwtMS41IDIuMjVMMy45NSAxMmgzeiIgZmlsbD0iIzQyODVmNCIvPiYjeGE7CTxwYXRoIGNsYXNzPSJzdDEiIGQ9Ik0yLjk4IDZoMGwzLjk3LTZoLTNMMCA2bDEuNDggMi4yNXoiIGZpbGw9IiNhZWNiZmEiLz4mI3hhOzwvc3ZnPg==;" vertex="1" parent="nG4mqLeNwJ-k9fJy5DQI-45">
          <mxGeometry width="30" height="18" relative="1" as="geometry">
            <mxPoint x="15" y="21" as="offset" />
          </mxGeometry>
        </mxCell>
        <mxCell id="nG4mqLeNwJ-k9fJy5DQI-54" value="" style="swimlane;startSize=0;" vertex="1" parent="1">
          <mxGeometry x="257" y="613" width="145" height="23" as="geometry">
            <mxRectangle x="340" y="444" width="122" height="40" as="alternateBounds" />
          </mxGeometry>
        </mxCell>
        <mxCell id="nG4mqLeNwJ-k9fJy5DQI-55" value="Customer Payments" style="text;html=1;align=center;verticalAlign=middle;resizable=0;points=[];autosize=1;strokeColor=none;fillColor=none;" vertex="1" parent="1">
          <mxGeometry x="265" y="610" width="130" height="30" as="geometry" />
        </mxCell>
        <mxCell id="nG4mqLeNwJ-k9fJy5DQI-56" value="Rest/Graphql Api Interface&lt;br&gt;" style="swimlane;horizontal=0;whiteSpace=wrap;html=1;" vertex="1" parent="1">
          <mxGeometry x="477" y="440" width="119" height="170" as="geometry" />
        </mxCell>
        <mxCell id="nG4mqLeNwJ-k9fJy5DQI-61" value="" style="shape=mxgraph.gcp2.doubleRect;strokeColor=#dddddd;shadow=1;strokeWidth=1;rounded=1;absoluteArcSize=1;arcSize=2;" vertex="1" parent="1">
          <mxGeometry x="666" y="471" width="178" height="65" as="geometry" />
        </mxCell>
        <mxCell id="nG4mqLeNwJ-k9fJy5DQI-62" value="&lt;font color=&quot;#000000&quot;&gt;Orders&lt;/font&gt;&lt;br&gt;CT Graphql Endpoint" style="editableCssRules=.*;html=1;fontColor=#999999;shape=image;verticalLabelPosition=middle;labelBackgroundColor=#ffffff;verticalAlign=middle;labelPosition=right;align=left;spacingLeft=20;part=1;points=[];imageAspect=0;image=data:image/svg+xml,PHN2ZyB4bWxucz0iaHR0cDovL3d3dy53My5vcmcvMjAwMC9zdmciIHhtbG5zOnY9Imh0dHBzOi8vdmVjdGEuaW8vbmFubyIgd2lkdGg9IjE5Ljk1MDAwMDc2MjkzOTQ1MyIgaGVpZ2h0PSIxMiIgdmlld0JveD0iMCAwIDE5Ljk1MDAwMDc2MjkzOTQ1MyAxMiI+JiN4YTsJPHN0eWxlIHR5cGU9InRleHQvY3NzIj4mI3hhOwkuc3Qwe2ZpbGw6IzQyODVmNH0mI3hhOwkuc3Qxe2ZpbGw6I2FlY2JmYX0mI3hhOwk8L3N0eWxlPiYjeGE7CTxwYXRoIGNsYXNzPSJzdDAiIGQ9Ik02IDZsMSAyaDZsMS0yLTEtMkg3eiIgZmlsbD0iIzQyODVmNCIvPiYjeGE7CTxwYXRoIGNsYXNzPSJzdDEiIGQ9Ik03LjUxIDRIN0w2IDZoOGwtMS0yeiIgZmlsbD0iI2FlY2JmYSIvPiYjeGE7CTxwYXRoIGNsYXNzPSJzdDAiIGQ9Ik0xNi45NyA2bDEuNS0yLjI1TDE2IDBoLTN6IiBmaWxsPSIjNDI4NWY0Ii8+JiN4YTsJPHBhdGggY2xhc3M9InN0MSIgZD0iTTE2Ljk3IDZoMEwxMyAxMmgzbDMuOTUtNi0xLjQ4LTIuMjV6IiBmaWxsPSIjYWVjYmZhIi8+JiN4YTsJPHBhdGggY2xhc3M9InN0MCIgZD0iTTIuOTggNmwtMS41IDIuMjVMMy45NSAxMmgzeiIgZmlsbD0iIzQyODVmNCIvPiYjeGE7CTxwYXRoIGNsYXNzPSJzdDEiIGQ9Ik0yLjk4IDZoMGwzLjk3LTZoLTNMMCA2bDEuNDggMi4yNXoiIGZpbGw9IiNhZWNiZmEiLz4mI3hhOzwvc3ZnPg==;" vertex="1" parent="nG4mqLeNwJ-k9fJy5DQI-61">
          <mxGeometry width="30" height="18" relative="1" as="geometry">
            <mxPoint x="15" y="21" as="offset" />
          </mxGeometry>
        </mxCell>
        <mxCell id="nG4mqLeNwJ-k9fJy5DQI-63" value="" style="shape=mxgraph.gcp2.doubleRect;strokeColor=#dddddd;shadow=1;strokeWidth=1;rounded=1;absoluteArcSize=1;arcSize=2;" vertex="1" parent="1">
          <mxGeometry x="666" y="544" width="178" height="65" as="geometry" />
        </mxCell>
        <mxCell id="nG4mqLeNwJ-k9fJy5DQI-64" value="&lt;font color=&quot;#000000&quot;&gt;Payments&lt;/font&gt;&lt;br&gt;CT Graphql Endpoint" style="editableCssRules=.*;html=1;fontColor=#999999;shape=image;verticalLabelPosition=middle;labelBackgroundColor=#ffffff;verticalAlign=middle;labelPosition=right;align=left;spacingLeft=20;part=1;points=[];imageAspect=0;image=data:image/svg+xml,PHN2ZyB4bWxucz0iaHR0cDovL3d3dy53My5vcmcvMjAwMC9zdmciIHhtbG5zOnY9Imh0dHBzOi8vdmVjdGEuaW8vbmFubyIgd2lkdGg9IjE5Ljk1MDAwMDc2MjkzOTQ1MyIgaGVpZ2h0PSIxMiIgdmlld0JveD0iMCAwIDE5Ljk1MDAwMDc2MjkzOTQ1MyAxMiI+JiN4YTsJPHN0eWxlIHR5cGU9InRleHQvY3NzIj4mI3hhOwkuc3Qwe2ZpbGw6IzQyODVmNH0mI3hhOwkuc3Qxe2ZpbGw6I2FlY2JmYX0mI3hhOwk8L3N0eWxlPiYjeGE7CTxwYXRoIGNsYXNzPSJzdDAiIGQ9Ik02IDZsMSAyaDZsMS0yLTEtMkg3eiIgZmlsbD0iIzQyODVmNCIvPiYjeGE7CTxwYXRoIGNsYXNzPSJzdDEiIGQ9Ik03LjUxIDRIN0w2IDZoOGwtMS0yeiIgZmlsbD0iI2FlY2JmYSIvPiYjeGE7CTxwYXRoIGNsYXNzPSJzdDAiIGQ9Ik0xNi45NyA2bDEuNS0yLjI1TDE2IDBoLTN6IiBmaWxsPSIjNDI4NWY0Ii8+JiN4YTsJPHBhdGggY2xhc3M9InN0MSIgZD0iTTE2Ljk3IDZoMEwxMyAxMmgzbDMuOTUtNi0xLjQ4LTIuMjV6IiBmaWxsPSIjYWVjYmZhIi8+JiN4YTsJPHBhdGggY2xhc3M9InN0MCIgZD0iTTIuOTggNmwtMS41IDIuMjVMMy45NSAxMmgzeiIgZmlsbD0iIzQyODVmNCIvPiYjeGE7CTxwYXRoIGNsYXNzPSJzdDEiIGQ9Ik0yLjk4IDZoMGwzLjk3LTZoLTNMMCA2bDEuNDggMi4yNXoiIGZpbGw9IiNhZWNiZmEiLz4mI3hhOzwvc3ZnPg==;" vertex="1" parent="nG4mqLeNwJ-k9fJy5DQI-63">
          <mxGeometry width="30" height="18" relative="1" as="geometry">
            <mxPoint x="15" y="21" as="offset" />
          </mxGeometry>
        </mxCell>
        <mxCell id="nG4mqLeNwJ-k9fJy5DQI-65" value="" style="shape=mxgraph.gcp2.doubleRect;strokeColor=#dddddd;shadow=1;strokeWidth=1;rounded=1;absoluteArcSize=1;arcSize=2;" vertex="1" parent="1">
          <mxGeometry x="669" y="613" width="178" height="65" as="geometry" />
        </mxCell>
        <mxCell id="nG4mqLeNwJ-k9fJy5DQI-66" value="&lt;font color=&quot;#000000&quot;&gt;Tickets(Custom)&lt;/font&gt;&lt;br&gt;CT Graphql Endpoint" style="editableCssRules=.*;html=1;fontColor=#999999;shape=image;verticalLabelPosition=middle;labelBackgroundColor=#ffffff;verticalAlign=middle;labelPosition=right;align=left;spacingLeft=20;part=1;points=[];imageAspect=0;image=data:image/svg+xml,PHN2ZyB4bWxucz0iaHR0cDovL3d3dy53My5vcmcvMjAwMC9zdmciIHhtbG5zOnY9Imh0dHBzOi8vdmVjdGEuaW8vbmFubyIgd2lkdGg9IjE5Ljk1MDAwMDc2MjkzOTQ1MyIgaGVpZ2h0PSIxMiIgdmlld0JveD0iMCAwIDE5Ljk1MDAwMDc2MjkzOTQ1MyAxMiI+JiN4YTsJPHN0eWxlIHR5cGU9InRleHQvY3NzIj4mI3hhOwkuc3Qwe2ZpbGw6IzQyODVmNH0mI3hhOwkuc3Qxe2ZpbGw6I2FlY2JmYX0mI3hhOwk8L3N0eWxlPiYjeGE7CTxwYXRoIGNsYXNzPSJzdDAiIGQ9Ik02IDZsMSAyaDZsMS0yLTEtMkg3eiIgZmlsbD0iIzQyODVmNCIvPiYjeGE7CTxwYXRoIGNsYXNzPSJzdDEiIGQ9Ik03LjUxIDRIN0w2IDZoOGwtMS0yeiIgZmlsbD0iI2FlY2JmYSIvPiYjeGE7CTxwYXRoIGNsYXNzPSJzdDAiIGQ9Ik0xNi45NyA2bDEuNS0yLjI1TDE2IDBoLTN6IiBmaWxsPSIjNDI4NWY0Ii8+JiN4YTsJPHBhdGggY2xhc3M9InN0MSIgZD0iTTE2Ljk3IDZoMEwxMyAxMmgzbDMuOTUtNi0xLjQ4LTIuMjV6IiBmaWxsPSIjYWVjYmZhIi8+JiN4YTsJPHBhdGggY2xhc3M9InN0MCIgZD0iTTIuOTggNmwtMS41IDIuMjVMMy45NSAxMmgzeiIgZmlsbD0iIzQyODVmNCIvPiYjeGE7CTxwYXRoIGNsYXNzPSJzdDEiIGQ9Ik0yLjk4IDZoMGwzLjk3LTZoLTNMMCA2bDEuNDggMi4yNXoiIGZpbGw9IiNhZWNiZmEiLz4mI3hhOzwvc3ZnPg==;" vertex="1" parent="nG4mqLeNwJ-k9fJy5DQI-65">
          <mxGeometry width="30" height="18" relative="1" as="geometry">
            <mxPoint x="15" y="21" as="offset" />
          </mxGeometry>
        </mxCell>
        <mxCell id="nG4mqLeNwJ-k9fJy5DQI-68" value="Graphql" style="sketch=0;html=1;dashed=0;whitespace=wrap;fillColor=#2875E2;strokeColor=#ffffff;points=[[0.005,0.63,0],[0.1,0.2,0],[0.9,0.2,0],[0.5,0,0],[0.995,0.63,0],[0.72,0.99,0],[0.5,1,0],[0.28,0.99,0]];verticalLabelPosition=bottom;align=center;verticalAlign=top;shape=mxgraph.kubernetes.icon;prIcon=api" vertex="1" parent="1">
          <mxGeometry x="520" y="536" width="50" height="44" as="geometry" />
        </mxCell>
        <mxCell id="nG4mqLeNwJ-k9fJy5DQI-69" value="CSA Agent" style="swimlane;whiteSpace=wrap;html=1;" vertex="1" parent="1">
          <mxGeometry x="52" y="470" width="113" height="117" as="geometry" />
        </mxCell>
      </root>
    </mxGraphModel>
  </diagram>
</mxfile>
